<svg xmlns="http://www.w3.org/2000/svg" width="39" height="46" fill="none" viewBox="0 0 39 46"><path fill="#000" d="M38.7286 19.8973L36.2232 17.4018C35.8725 17.0524 35.3046 17.0524 34.9539 17.4018L23.7132 28.5982C23.1453 29.1638 22.1766 28.7646 22.1766 27.966V0.898373C22.1766 0.399277 21.7757 0 21.2746 0H17.717C17.216 0 16.8151 0.399277 16.8151 0.898373V27.9494C16.8151 28.7479 15.8464 29.1472 15.2785 28.5816L4.03779 17.3852C3.68704 17.0358 3.11916 17.0358 2.76842 17.3852L0.263062 19.8807C-0.0876874 20.23 -0.0876874 20.7957 0.263062 21.145L11.5037 32.3414C12.0716 32.9071 11.6708 33.872 10.8691 33.872H2.05021C1.54914 33.872 1.14829 34.2712 1.14829 34.7703V38.3139C1.14829 38.813 1.54914 39.2123 2.05021 39.2123H10.8691C11.6708 39.2123 12.0716 40.1772 11.5037 40.7429L10.2678 41.974C9.91702 42.3233 9.91702 42.889 10.2678 43.2383L12.7731 45.7338C13.1239 46.0832 13.6918 46.0832 14.0425 45.7338L18.8528 40.9425C19.2035 40.5931 19.7714 40.5931 20.1222 40.9425L24.9324 45.7338C25.2832 46.0832 25.8511 46.0832 26.2018 45.7338L28.7072 43.2383C29.0579 42.889 29.0579 42.3233 28.7072 41.974L27.4712 40.7429C26.9033 40.1772 27.3042 39.2123 28.1059 39.2123H36.9247C37.4258 39.2123 37.8267 38.813 37.8267 38.3139V34.7703C37.8267 34.2712 37.4258 33.872 36.9247 33.872H28.1059C27.3042 33.872 26.9033 32.9071 27.4712 32.3414L38.7119 21.145C39.0793 20.8123 39.0793 20.2467 38.7286 19.8973Z"/></svg>