<svg width="21" height="20" viewBox="0 0 21 20" fill="none" xmlns="http://www.w3.org/2000/svg">
<path d="M20.9798 9.40995C20.6398 3.60995 15.3698 -0.860038 9.2998 0.139962C5.1198 0.829962 1.7698 4.21994 1.1198 8.39994C0.739804 10.8199 1.23983 13.1099 2.32983 14.9999L1.43981 18.3099C1.23981 19.0599 1.92979 19.7399 2.66979 19.5299L5.9298 18.63C7.4098 19.5 9.1398 19.9999 10.9898 19.9999C16.6298 19.9999 21.3098 15.03 20.9798 9.40995ZM15.8798 13.7199C15.7898 13.8999 15.6798 14.07 15.5398 14.23C15.2898 14.5 15.0198 14.7 14.7198 14.82C14.4198 14.95 14.0898 15.01 13.7398 15.01C13.2298 15.01 12.6798 14.89 12.1098 14.64C11.5298 14.39 10.9598 14.0599 10.3898 13.6499C9.80982 13.2299 9.26981 12.7599 8.74981 12.2499C8.22981 11.7299 7.76978 11.1799 7.34978 10.6099C6.93979 10.0399 6.6098 9.46994 6.3698 8.89994C6.1298 8.32994 6.00982 7.77996 6.00982 7.25996C6.00982 6.91996 6.06981 6.58996 6.18981 6.28996C6.30981 5.97996 6.49983 5.69996 6.76983 5.44996C7.08983 5.12996 7.43981 4.97996 7.80981 4.97996C7.94981 4.97996 8.08978 5.00995 8.21978 5.06995C8.34978 5.12995 8.46981 5.21995 8.55981 5.34995L9.71978 6.98994C9.80978 7.11994 9.87979 7.22994 9.91979 7.33994C9.96979 7.44994 9.9898 7.54994 9.9898 7.64994C9.9898 7.76994 9.94981 7.88996 9.87981 8.00996C9.80981 8.12996 9.71978 8.24994 9.59978 8.36994L9.21978 8.76994C9.15978 8.82994 9.13982 8.88995 9.13982 8.96995C9.13982 9.00995 9.14978 9.04994 9.15978 9.08994C9.17978 9.12994 9.18982 9.15995 9.19982 9.18995C9.28982 9.35995 9.44979 9.56993 9.66979 9.82993C9.89979 10.0899 10.1398 10.3599 10.3998 10.6199C10.6698 10.8899 10.9298 11.1299 11.1998 11.3599C11.4598 11.5799 11.6798 11.73 11.8498 11.82C11.8798 11.83 11.9098 11.8499 11.9398 11.8599C11.9798 11.8799 12.0198 11.88 12.0698 11.88C12.1598 11.88 12.2198 11.85 12.2798 11.79L12.6598 11.41C12.7898 11.28 12.9098 11.19 13.0198 11.13C13.1398 11.06 13.2498 11.0199 13.3798 11.0199C13.4798 11.0199 13.5798 11.0399 13.6898 11.0899C13.7998 11.1399 13.9198 11.2 14.0398 11.29L15.6998 12.4699C15.8298 12.5599 15.9198 12.67 15.9798 12.79C16.0298 12.92 16.0598 13.0399 16.0598 13.1799C15.9998 13.3499 15.9598 13.5399 15.8798 13.7199Z" fill="black"/>
</svg>
